<svg xmlns="http://www.w3.org/2000/svg" viewBox="0 0 302.56 302.56"><defs><style>.cls-1{fill:#e2ddd5;}.cls-2{fill:#1f3a22;}</style></defs><g id="Layer_2" data-name="Layer 2"><g id="Layer_1_copy" data-name="Layer 1 copy"><circle class="cls-1" cx="151.28" cy="151.28" r="151.28"/><circle class="cls-2" cx="151.28" cy="150.28" r="118.47"/><path class="cls-1" d="M234.2,189.15a8.78,8.78,0,0,1-6.79-3.24c-12.58-14.1-7.28-65.85-6.86-69.76.72-1.62,1.11-2.56,1.11-2.56-.87.09-1.68.2-2.53.31a1.29,1.29,0,0,0-.21-.07,1.74,1.74,0,0,0-1.06.22c-53.55,7-62.13,41.4-49.84,50.74,18,13.66,38.26-19.84,47.93-39-1.16,17.18-1.9,50.76,8.66,62.59a12.47,12.47,0,0,0,9.59,4.49,1.88,1.88,0,0,0,0-3.75Z"/><path class="cls-1" d="M111.4,196.55a1.88,1.88,0,0,1-.09-3.76c6.33-.31,9.24-10.67,10.56-19.29a129.75,129.75,0,0,0,1.28-20.09,1.88,1.88,0,1,1,3.75-.1c.12,4.34.69,42.43-15.41,43.23Z"/><path class="cls-1" d="M178.16,167.91q-.74.06-1.47.06h.19C177.31,168,177.73,168,178.16,167.91Z"/><path class="cls-1" d="M222.85,142c0,5.4.08,10.9.47,16.1a127.69,127.69,0,0,0,16.84-13Z"/><path class="cls-1" d="M211.54,141.58c-9.6,15.82-21.84,30.15-34.66,30.15a18.16,18.16,0,0,1-11.13-3.95c-5.68-4.32-7.79-12.33-5.51-20.91a36.36,36.36,0,0,1,8.23-14.65L115,122.63s-2.71-13.78-15.84-13.76c-.93-2.13-8-16.93-22.68-18.07a1.86,1.86,0,0,0-2,1.73,1.89,1.89,0,0,0,1.73,2c11.22.86,17.47,11.68,19.14,15-8.93,3.94-30,24.75-6.11,46.73l17.47-12.05s16.66,31.6,57.81,32.84c18.12.55,35-5.59,48.12-12.64A171.6,171.6,0,0,1,211.54,141.58Z"/><path class="cls-1" d="M87.81,109.92c-3.83-2.6-11.56-5.93-24-2.91a1.87,1.87,0,1,0,.88,3.64c10.31-2.49,16.79-.19,20.19,1.86A36,36,0,0,1,87.81,109.92Z"/><path class="cls-1" d="M114,159.63c-2.19,11.82-6.61,26.3-14,26.3h-.31a1.82,1.82,0,0,0-2,1.77,1.87,1.87,0,0,0,1.77,2l.56,0c9.91,0,14.88-14.95,17.28-27Q115.48,161.16,114,159.63Z"/></g></g></svg>